<svg width="542" height="542" viewBox="0 0 542 542" fill="none" xmlns="http://www.w3.org/2000/svg">
<rect width="542" height="542" rx="150" fill="#4E69F6"/>
<path opacity="0.5" d="M128 271C128 216.792 128 189.681 144.76 172.847C161.519 156.014 188.475 156 242.4 156H299.6C353.525 156 380.495 156 397.24 172.847C413.986 189.695 414 216.792 414 271C414 325.208 414 352.319 397.24 369.152C380.481 385.986 353.525 386 299.6 386H242.4C188.475 386 161.505 386 144.76 369.152C128.014 352.305 128 325.208 128 271Z" fill="white"/>
<path d="M281.741 242.636C281.741 239.815 280.61 237.11 278.595 235.115C276.581 233.121 273.849 232 271 232C268.151 232 265.419 233.121 263.405 235.115C261.39 237.11 260.259 239.815 260.259 242.636V252.578L251.565 247.614C250.343 246.857 248.978 246.352 247.554 246.129C246.13 245.905 244.675 245.968 243.276 246.313C241.877 246.658 240.562 247.279 239.411 248.138C238.259 248.997 237.294 250.076 236.572 251.313C235.851 252.549 235.388 253.916 235.212 255.333C235.036 256.75 235.149 258.188 235.546 259.561C235.943 260.933 236.615 262.213 237.521 263.323C238.428 264.433 239.551 265.351 240.824 266.022L249.517 270.986L240.824 275.964C238.355 277.374 236.553 279.698 235.814 282.424C235.076 285.15 235.461 288.055 236.885 290.5C238.31 292.945 240.657 294.729 243.41 295.461C246.163 296.192 249.096 295.81 251.565 294.4L260.259 289.422V299.364C260.259 302.185 261.39 304.89 263.405 306.885C265.419 308.879 268.151 310 271 310C273.849 310 276.581 308.879 278.595 306.885C280.61 304.89 281.741 302.185 281.741 299.364V289.436L290.435 294.4C292.904 295.81 295.837 296.192 298.59 295.461C301.343 294.729 303.69 292.945 305.115 290.5C306.539 288.055 306.924 285.15 306.186 282.424C305.447 279.698 303.645 277.374 301.176 275.964L292.483 271L301.176 266.036C303.645 264.626 305.447 262.302 306.186 259.576C306.924 256.85 306.539 253.945 305.115 251.5C303.69 249.055 301.343 247.271 298.59 246.539C295.837 245.808 292.904 246.19 290.435 247.6L281.741 252.564V242.636ZM195.567 232C198.416 232 201.148 233.121 203.162 235.115C205.177 237.11 206.308 239.815 206.308 242.636V252.564L214.987 247.6C217.456 246.19 220.39 245.808 223.143 246.539C225.896 247.271 228.243 249.055 229.667 251.5C231.092 253.945 231.477 256.85 230.738 259.576C230 262.302 228.198 264.626 225.729 266.036L217.035 271L225.729 275.964C226.951 276.662 228.023 277.592 228.882 278.701C229.742 279.809 230.373 281.074 230.738 282.424C231.104 283.774 231.198 285.182 231.014 286.568C230.83 287.953 230.373 289.289 229.667 290.5C228.962 291.711 228.023 292.772 226.903 293.623C225.784 294.474 224.506 295.098 223.143 295.461C221.78 295.823 220.358 295.915 218.959 295.733C217.559 295.552 216.21 295.098 214.987 294.4L206.308 289.436V299.364C206.308 302.185 205.177 304.89 203.162 306.885C201.148 308.879 198.416 310 195.567 310C192.718 310 189.986 308.879 187.972 306.885C185.957 304.89 184.826 302.185 184.826 299.364V289.422L176.118 294.386C173.66 295.682 170.791 295.982 168.114 295.223C165.437 294.465 163.162 292.706 161.769 290.319C160.376 287.932 159.973 285.102 160.646 282.427C161.319 279.751 163.015 277.439 165.377 275.978L174.07 271L165.377 266.036C164.154 265.338 163.083 264.408 162.223 263.299C161.363 262.191 160.733 260.926 160.367 259.576C160.001 258.226 159.908 256.818 160.091 255.432C160.275 254.047 160.733 252.711 161.438 251.5C162.143 250.289 163.083 249.228 164.202 248.377C165.321 247.526 166.599 246.902 167.962 246.539C169.326 246.177 170.747 246.085 172.147 246.267C173.546 246.448 174.896 246.902 176.118 247.6L184.826 252.578V242.636C184.826 239.815 185.957 237.11 187.972 235.115C189.986 233.121 192.718 232 195.567 232ZM357.189 242.636C357.189 239.815 356.057 237.11 354.043 235.115C352.028 233.121 349.296 232 346.447 232C343.598 232 340.866 233.121 338.852 235.115C336.838 237.11 335.706 239.815 335.706 242.636V252.578L327.013 247.614C325.79 246.857 324.426 246.352 323.002 246.129C321.578 245.905 320.123 245.968 318.724 246.313C317.324 246.658 316.01 247.279 314.858 248.138C313.706 248.997 312.741 250.076 312.02 251.313C311.298 252.549 310.836 253.916 310.659 255.333C310.483 256.75 310.597 258.188 310.993 259.561C311.39 260.933 312.062 262.213 312.969 263.323C313.875 264.433 314.999 265.351 316.271 266.022L324.965 270.986L316.271 275.964C315.049 276.662 313.977 277.592 313.118 278.701C312.258 279.809 311.627 281.074 311.262 282.424C310.896 283.774 310.802 285.182 310.986 286.568C311.17 287.953 311.627 289.289 312.333 290.5C313.038 291.711 313.977 292.772 315.097 293.623C316.216 294.474 317.494 295.098 318.857 295.461C320.22 295.823 321.642 295.915 323.041 295.733C324.441 295.552 325.79 295.098 327.013 294.4L335.706 289.422V299.364C335.706 302.185 336.838 304.89 338.852 306.885C340.866 308.879 343.598 310 346.447 310C349.296 310 352.028 308.879 354.043 306.885C356.057 304.89 357.189 302.185 357.189 299.364V289.436L365.882 294.4C368.351 295.81 371.285 296.192 374.038 295.461C376.791 294.729 379.137 292.945 380.562 290.5C381.986 288.055 382.371 285.15 381.633 282.424C380.894 279.698 379.092 277.374 376.623 275.964L367.93 271L376.623 266.036C377.846 265.338 378.917 264.408 379.777 263.299C380.637 262.191 381.267 260.926 381.633 259.576C381.999 258.226 382.092 256.818 381.908 255.432C381.725 254.047 381.267 252.711 380.562 251.5C379.857 250.289 378.917 249.228 377.798 248.377C376.679 247.526 375.401 246.902 374.038 246.539C372.674 246.177 371.253 246.085 369.853 246.267C368.454 246.448 367.104 246.902 365.882 247.6L357.189 252.564V242.636Z" fill="white"/>
</svg>
