<svg width="22" height="22" viewBox="0 0 22 22" fill="none" xmlns="http://www.w3.org/2000/svg">
<path d="M3.00005 14V6C3.00005 4.114 3.00005 3.172 3.58605 2.586C4.17205 2 5.11405 2 7.00005 2H10M19 14V13.5M17 8H17.009M17 1C18.886 1 19.828 1 20.414 1.586C21 2.172 21 3.114 21 5V7C21 8.886 21 9.828 20.414 10.414C19.828 11 18.886 11 17 11C15.114 11 14.172 11 13.586 10.414C13 9.828 13 8.886 13 7V5C13 3.114 13 2.172 13.586 1.586C14.172 1 15.114 1 17 1ZM2.49805 15.015L3.02005 14H18.952L19.502 15.015C20.945 17.677 21.305 19.008 20.756 20.004C20.207 21 18.754 21 15.846 21H6.15405C3.24505 21 1.79105 21 1.24305 20.004C0.694048 19.008 1.05405 17.677 2.49805 15.015Z" stroke="black" stroke-width="1.5" stroke-linecap="round" stroke-linejoin="round"/>
</svg>
