<svg width="22" height="22" viewBox="0 0 22 22" fill="none" xmlns="http://www.w3.org/2000/svg">
<path d="M12 3.00012L19 10.0001M13 21.0001H21M13.074 2.88512C13.819 2.07812 14.191 1.67512 14.587 1.43912C15.0545 1.1593 15.5875 1.00763 16.1322 0.999379C16.677 0.991128 17.2143 1.12659 17.69 1.39212C18.093 1.61612 18.477 2.00812 19.245 2.79212C20.013 3.57712 20.397 3.97012 20.615 4.38112C20.8752 4.87053 21.0074 5.41772 20.9996 5.9719C20.9917 6.52608 20.844 7.0693 20.57 7.55112C20.34 7.95512 19.945 8.33612 19.154 9.09712L9.75105 18.1541C8.25305 19.5971 7.50405 20.3181 6.56805 20.6841C5.63205 21.0501 4.60305 21.0221 2.54505 20.9691L2.26505 20.9611C1.63905 20.9451 1.32505 20.9371 1.14405 20.7301C0.961048 20.5231 0.986048 20.2041 1.03605 19.5661L1.06305 19.2201C1.20305 17.4241 1.27305 16.5261 1.62305 15.7181C1.97305 14.9101 2.57905 14.2551 3.78905 12.9441L13.074 2.88512Z" stroke="black" stroke-width="1.5" stroke-linecap="round" stroke-linejoin="round"/>
</svg>
