<svg width="18" height="22" viewBox="0 0 18 22" fill="none" xmlns="http://www.w3.org/2000/svg">
<path fill-rule="evenodd" clip-rule="evenodd" d="M9 2C7.14348 2 5.36301 2.7375 4.05025 4.05025C2.7375 5.36301 2 7.14348 2 9V11C2 11.2652 1.89464 11.5196 1.70711 11.7071C1.51957 11.8946 1.26522 12 1 12C0.734784 12 0.48043 11.8946 0.292893 11.7071C0.105357 11.5196 0 11.2652 0 11V9C3.55683e-08 6.61305 0.948211 4.32387 2.63604 2.63604C4.32387 0.948212 6.61305 0 9 0C11.3869 0 13.6761 0.948212 15.364 2.63604C17.0518 4.32387 18 6.61305 18 9V12C17.9872 12.8815 17.9214 13.7614 17.803 14.635C17.614 16.02 17.218 17.876 16.3 19.1C16.1409 19.3122 15.904 19.4524 15.6414 19.49C15.3789 19.5275 15.1122 19.4591 14.9 19.3C14.6878 19.1409 14.5476 18.904 14.51 18.6414C14.4725 18.3789 14.5409 18.1122 14.7 17.9C15.282 17.124 15.636 15.73 15.822 14.365C15.9258 13.5806 15.9853 12.7911 16 12V9C16 7.14348 15.2625 5.36301 13.9497 4.05025C12.637 2.7375 10.8565 2 9 2ZM9 6C8.20435 6 7.44129 6.31607 6.87868 6.87868C6.31607 7.44129 6 8.20435 6 9V10C6 10.94 5.696 12.1 5.132 13.158C4.565 14.221 3.683 15.276 2.447 15.894C2.32912 15.9576 2.19968 15.9968 2.06635 16.0094C1.93302 16.022 1.79852 16.0077 1.67083 15.9673C1.54314 15.9269 1.42486 15.8613 1.32301 15.7743C1.22117 15.6874 1.13782 15.5808 1.07793 15.461C1.01804 15.3413 0.982819 15.2107 0.974357 15.077C0.965896 14.9433 0.984368 14.8094 1.02868 14.683C1.07298 14.5566 1.14223 14.4404 1.2323 14.3413C1.32236 14.2422 1.43142 14.1622 1.553 14.106C2.317 13.724 2.935 13.029 3.368 12.216C3.804 11.4 4 10.56 4 10V9C4 7.67392 4.52678 6.40215 5.46447 5.46447C6.40215 4.52678 7.67392 4 9 4C10.3261 4 11.5979 4.52678 12.5355 5.46447C13.4732 6.40215 14 7.67392 14 9V10.117C14 13.041 14.001 16.967 10.64 19.768C10.5396 19.8558 10.4227 19.9226 10.2962 19.9646C10.1696 20.0065 10.0359 20.0227 9.90298 20.0123C9.77006 20.0018 9.64056 19.9648 9.52213 19.9036C9.40369 19.8423 9.29871 19.758 9.21334 19.6555C9.12798 19.5531 9.06396 19.4346 9.02506 19.3071C8.98616 19.1796 8.97316 19.0455 8.98683 18.9129C9.00049 18.7802 9.04055 18.6517 9.10463 18.5347C9.16872 18.4178 9.25554 18.3149 9.36 18.232C11.954 16.07 12 13.064 12 10V9C12 8.20435 11.6839 7.44129 11.1213 6.87868C10.5587 6.31607 9.79565 6 9 6ZM10 9.5C10 9.23478 9.89464 8.98043 9.70711 8.79289C9.51957 8.60536 9.26522 8.5 9 8.5C8.73478 8.5 8.48043 8.60536 8.29289 8.79289C8.10536 8.98043 8 9.23478 8 9.5C8 10.697 7.879 12.202 7.426 13.559C6.976 14.913 6.232 16.016 5.053 16.606C4.93142 16.6622 4.82236 16.7422 4.7323 16.8413C4.64223 16.9404 4.57298 17.0566 4.52868 17.183C4.48437 17.3094 4.4659 17.4433 4.47436 17.577C4.48282 17.7107 4.51804 17.8413 4.57793 17.961C4.63782 18.0808 4.72117 18.1874 4.82301 18.2743C4.92486 18.3613 5.04314 18.4269 5.17083 18.4673C5.29852 18.5077 5.43302 18.522 5.56635 18.5094C5.69968 18.4968 5.82912 18.4576 5.947 18.394C7.768 17.484 8.775 15.838 9.324 14.191C9.871 12.548 10 10.803 10 9.5Z" fill="black"/>
</svg>
