<svg width="22" height="22" viewBox="0 0 22 22" fill="none" xmlns="http://www.w3.org/2000/svg">
<path d="M14 16C13.2 16.622 12.15 17 11 17C9.85 17 8.8 16.622 8 16" stroke="black" stroke-width="1.5" stroke-linecap="round" stroke-linejoin="round"/>
<path d="M1.35204 12.214C0.998042 9.916 0.822042 8.768 1.25604 7.749C1.69004 6.73 2.65404 6.034 4.58104 4.641L6.02104 3.6C8.41804 1.867 9.61704 1 11.001 1C12.383 1 13.581 1.867 15.979 3.6L17.419 4.641C19.346 6.034 20.309 6.731 20.744 7.749C21.178 8.768 21.002 9.916 20.649 12.213L20.348 14.173C19.848 17.429 19.597 19.057 18.429 20.029C17.261 21.001 15.554 21 12.14 21H9.86004C6.44504 21 4.73804 21 3.57004 20.029C2.40204 19.057 2.15204 17.429 1.65204 14.172L1.35204 12.214Z" stroke="black" stroke-width="1.5" stroke-linecap="round" stroke-linejoin="round"/>
</svg>
