<svg width="22" height="22" viewBox="0 0 22 22" fill="none" xmlns="http://www.w3.org/2000/svg">
<path d="M13 19.0001C13 19.0001 14 19.0001 15 21.0001C15 21.0001 18.177 16.0001 21 15.0001M17 13.0001C16.9481 12.3833 16.8794 11.7681 16.794 11.1551C16.569 9.48505 15.18 8.17605 13.49 8.09905C12.005 8.03154 10.5186 7.99853 9.032 8.00005C7.54542 7.9985 6.05901 8.03184 4.574 8.10005C2.884 8.17605 1.494 9.48505 1.269 11.1551C1.122 12.2451 1 13.3621 1 14.5001C1 15.6381 1.122 16.7551 1.269 17.8451C1.495 19.5151 2.884 20.8241 4.574 20.9011C6.54795 20.9917 8.52422 21.0214 10.5 20.9901" stroke="black" stroke-width="1.5" stroke-linecap="round" stroke-linejoin="round"/>
<path d="M4.5 8V5.5C4.5 4.30653 4.97411 3.16193 5.81802 2.31802C6.66193 1.47411 7.80653 1 9 1C10.1935 1 11.3381 1.47411 12.182 2.31802C13.0259 3.16193 13.5 4.30653 13.5 5.5V8" stroke="black" stroke-width="1.5" stroke-linecap="round" stroke-linejoin="round"/>
</svg>
