<svg width="286" height="230" viewBox="0 0 286 230" fill="none" xmlns="http://www.w3.org/2000/svg">
<path opacity="0.5" d="M0 115C0 60.7919 -1.70469e-06 33.6806 16.7596 16.8475C33.5192 0.014374 60.4747 0 114.4 0H171.6C225.525 0 252.495 -1.71363e-06 269.24 16.8475C285.986 33.695 286 60.7919 286 115C286 169.208 286 196.319 269.24 213.152C252.481 229.986 225.525 230 171.6 230H114.4C60.4747 230 33.5049 230 16.7596 213.152C0.014299 196.305 0 169.208 0 115Z" fill="white"/>
<path d="M153.741 86.6364C153.741 83.8154 152.61 81.11 150.595 79.1153C148.581 77.1206 145.849 76 143 76C140.151 76 137.419 77.1206 135.405 79.1153C133.39 81.11 132.259 83.8154 132.259 86.6364V96.5778L123.565 91.6142C122.343 90.8575 120.978 90.3523 119.554 90.1288C118.13 89.9052 116.675 89.9679 115.276 90.313C113.877 90.6582 112.562 91.2787 111.411 92.1376C110.259 92.9966 109.294 94.0764 108.572 95.3126C107.851 96.5489 107.388 97.9163 107.212 99.3333C107.036 100.75 107.149 102.188 107.546 103.561C107.943 104.933 108.615 106.213 109.521 107.323C110.428 108.433 111.551 109.351 112.824 110.022L121.517 114.986L112.824 119.964C110.355 121.374 108.553 123.698 107.814 126.424C107.076 129.15 107.461 132.055 108.885 134.5C110.31 136.945 112.657 138.729 115.41 139.461C118.163 140.192 121.096 139.81 123.565 138.4L132.259 133.422V143.364C132.259 146.185 133.39 148.89 135.405 150.885C137.419 152.879 140.151 154 143 154C145.849 154 148.581 152.879 150.595 150.885C152.61 148.89 153.741 146.185 153.741 143.364V133.436L162.435 138.4C164.904 139.81 167.837 140.192 170.59 139.461C173.343 138.729 175.69 136.945 177.115 134.5C178.539 132.055 178.924 129.15 178.186 126.424C177.447 123.698 175.645 121.374 173.176 119.964L164.483 115L173.176 110.036C175.645 108.626 177.447 106.302 178.186 103.576C178.924 100.85 178.539 97.9448 177.115 95.5C175.69 93.0552 173.343 91.2708 170.59 90.5394C167.837 89.808 164.904 90.1895 162.435 91.6L153.741 96.5636V86.6364ZM67.567 76C70.4158 76 73.1479 77.1206 75.1623 79.1153C77.1767 81.11 78.3084 83.8154 78.3084 86.6364V96.5636L86.9874 91.6C89.4563 90.1895 92.39 89.808 95.143 90.5394C97.896 91.2708 100.243 93.0552 101.667 95.5C103.092 97.9448 103.477 100.85 102.738 103.576C102 106.302 100.198 108.626 97.7287 110.036L89.0354 115L97.7287 119.964C98.9512 120.662 100.023 121.592 100.882 122.701C101.742 123.809 102.373 125.074 102.738 126.424C103.104 127.774 103.198 129.182 103.014 130.568C102.83 131.953 102.373 133.289 101.667 134.5C100.962 135.711 100.023 136.772 98.9034 137.623C97.7839 138.474 96.5062 139.098 95.143 139.461C93.7799 139.823 92.358 139.915 90.9587 139.733C89.5593 139.552 88.2099 139.098 86.9874 138.4L78.3084 133.436V143.364C78.3084 146.185 77.1767 148.89 75.1623 150.885C73.1479 152.879 70.4158 154 67.567 154C64.7182 154 61.9861 152.879 59.9717 150.885C57.9573 148.89 56.8257 146.185 56.8257 143.364V133.422L48.118 138.386C45.6603 139.682 42.7905 139.982 40.1136 139.223C37.4367 138.465 35.1619 136.706 33.7688 134.319C32.3758 131.932 31.9734 129.102 32.6464 126.427C33.3195 123.751 35.0154 121.439 37.3766 119.978L46.07 115L37.3766 110.036C36.1541 109.338 35.0825 108.408 34.223 107.299C33.3635 106.191 32.7328 104.926 32.3671 103.576C32.0014 102.226 31.9077 100.818 32.0915 99.4325C32.2753 98.0468 32.7329 96.7105 33.4381 95.5C34.1434 94.2895 35.0826 93.2283 36.202 92.3772C37.3215 91.526 38.5992 90.9016 39.9624 90.5394C41.3255 90.1773 42.7474 90.0845 44.1467 90.2665C45.5461 90.4485 46.8955 90.9016 48.118 91.6L56.8257 96.5778V86.6364C56.8257 83.8154 57.9573 81.11 59.9717 79.1153C61.9861 77.1206 64.7182 76 67.567 76ZM229.189 86.6364C229.189 83.8154 228.057 81.11 226.043 79.1153C224.028 77.1206 221.296 76 218.447 76C215.598 76 212.866 77.1206 210.852 79.1153C208.838 81.11 207.706 83.8154 207.706 86.6364V96.5778L199.013 91.6142C197.79 90.8575 196.426 90.3523 195.002 90.1288C193.578 89.9052 192.123 89.9679 190.724 90.313C189.324 90.6582 188.01 91.2787 186.858 92.1376C185.706 92.9966 184.741 94.0764 184.02 95.3126C183.298 96.5489 182.836 97.9163 182.659 99.3333C182.483 100.75 182.597 102.188 182.993 103.561C183.39 104.933 184.062 106.213 184.969 107.323C185.875 108.433 186.999 109.351 188.271 110.022L196.965 114.986L188.271 119.964C187.049 120.662 185.977 121.592 185.118 122.701C184.258 123.809 183.627 125.074 183.262 126.424C182.896 127.774 182.802 129.182 182.986 130.568C183.17 131.953 183.627 133.289 184.333 134.5C185.038 135.711 185.977 136.772 187.097 137.623C188.216 138.474 189.494 139.098 190.857 139.461C192.22 139.823 193.642 139.915 195.041 139.733C196.441 139.552 197.79 139.098 199.013 138.4L207.706 133.422V143.364C207.706 146.185 208.838 148.89 210.852 150.885C212.866 152.879 215.598 154 218.447 154C221.296 154 224.028 152.879 226.043 150.885C228.057 148.89 229.189 146.185 229.189 143.364V133.436L237.882 138.4C240.351 139.81 243.285 140.192 246.038 139.461C248.791 138.729 251.137 136.945 252.562 134.5C253.986 132.055 254.371 129.15 253.633 126.424C252.894 123.698 251.092 121.374 248.623 119.964L239.93 115L248.623 110.036C249.846 109.338 250.917 108.408 251.777 107.299C252.637 106.191 253.267 104.926 253.633 103.576C253.999 102.226 254.092 100.818 253.908 99.4325C253.725 98.0468 253.267 96.7105 252.562 95.5C251.857 94.2895 250.917 93.2283 249.798 92.3772C248.679 91.526 247.401 90.9016 246.038 90.5394C244.674 90.1773 243.253 90.0845 241.853 90.2665C240.454 90.4485 239.104 90.9016 237.882 91.6L229.189 96.5636V86.6364Z" fill="white"/>
</svg>
