<svg width="22" height="16" viewBox="0 0 22 16" fill="none" xmlns="http://www.w3.org/2000/svg">
<path fill-rule="evenodd" clip-rule="evenodd" d="M3.19008 3.262C4.94008 1.577 7.51708 0 11.0001 0C14.4831 0 17.0601 1.577 18.8101 3.262C20.0357 4.45235 21.0505 5.84209 21.8111 7.372C22.0041 7.771 22.0041 8.229 21.8111 8.627C21.0509 10.1572 20.0365 11.5473 18.8111 12.738C17.0601 14.423 14.4831 16 11.0001 16C7.51708 16 4.94008 14.423 3.19008 12.738C1.96443 11.5476 0.949686 10.1579 0.189078 8.628C0.0943662 8.43237 0.045166 8.21785 0.045166 8.0005C0.045166 7.78315 0.0943662 7.56863 0.189078 7.373C0.949287 5.8428 1.96469 4.45273 3.19008 3.262ZM11.0001 11C11.7957 11 12.5588 10.6839 13.1214 10.1213C13.684 9.55871 14.0001 8.79565 14.0001 8C14.0001 7.20435 13.684 6.44129 13.1214 5.87868C12.5588 5.31607 11.7957 5 11.0001 5C10.2044 5 9.44137 5.31607 8.87876 5.87868C8.31615 6.44129 8.00008 7.20435 8.00008 8C8.00008 8.79565 8.31615 9.55871 8.87876 10.1213C9.44137 10.6839 10.2044 11 11.0001 11Z" fill="black"/>
</svg>
