<svg width="18" height="22" viewBox="0 0 18 22" fill="none" xmlns="http://www.w3.org/2000/svg">
<path d="M4.5 8V5.5C4.5 4.30653 4.97411 3.16193 5.81802 2.31802C6.66193 1.47411 7.80653 1 9 1C10.96 1 12.5 2.5 13 4M8.996 14.5H9.006M1.268 17.845C1.493 19.515 2.876 20.824 4.56 20.901C5.976 20.966 7.415 21 9 21C10.585 21 12.024 20.966 13.44 20.9C15.124 20.824 16.507 19.515 16.732 17.845C16.879 16.755 17 15.638 17 14.5C17 13.362 16.879 12.245 16.732 11.155C16.507 9.485 15.124 8.176 13.44 8.099C11.961 8.03141 10.4806 7.9984 9 8C7.415 8 5.976 8.034 4.56 8.1C2.876 8.176 1.493 9.485 1.268 11.155C1.12 12.245 1 13.362 1 14.5C1 15.638 1.121 16.755 1.268 17.845Z" stroke="black" stroke-width="1.5" stroke-linecap="round" stroke-linejoin="round"/>
</svg>
