<svg width="22" height="22" viewBox="0 0 22 22" fill="none" xmlns="http://www.w3.org/2000/svg">
<path d="M1.5 8C1.53 7.19467 1.62 6.378 1.77 5.55C1.88 4.934 1.936 4.626 2.126 4.415C2.316 4.204 2.786 4.055 3.725 3.755C6.035 3.019 7.987 1 10.998 1C14.009 1 15.965 3.02 18.275 3.755C19.214 4.055 19.683 4.204 19.873 4.415C20.063 4.625 20.119 4.934 20.23 5.55C20.38 6.378 20.47 7.19467 20.5 8M18.445 16C17.125 18.023 15.177 19.637 12.615 20.618C11.948 20.873 11.615 21 11.001 21C10.389 21 10.055 20.872 9.388 20.617C6.826 19.637 4.878 18.023 3.557 16M7.5 11L8.5 12M8.5 12L9.5 13M8.5 12L9.5 11M8.5 12L7.5 13M2.5 11L3.5 12M3.5 12L4.5 13M3.5 12L4.5 11M3.5 12L2.5 13M12.5 11L13.5 12M13.5 12L14.5 13M13.5 12L14.5 11M13.5 12L12.5 13M17.5 11L18.5 12M18.5 12L19.5 13M18.5 12L19.5 11M18.5 12L17.5 13" stroke="black" stroke-width="1.5" stroke-linecap="round" stroke-linejoin="round"/>
</svg>
