<svg width="22" height="22" viewBox="0 0 22 22" fill="none" xmlns="http://www.w3.org/2000/svg">
<path d="M12.408 15.668C12.408 15.668 13.033 15.668 13.658 17.002C13.658 17.002 15.644 13.668 17.408 13.002M15.943 6.00103H15.953M10.943 6.00103H10.953M5.943 6.00103H5.953M6.892 10.969H4.008C3.61351 10.9696 3.22278 10.8924 2.85811 10.7419C2.49345 10.5914 2.162 10.3706 1.88268 10.092C1.60336 9.81343 1.38165 9.48256 1.2302 9.1183C1.07875 8.75404 1.00052 8.36352 1 7.96903V3.99903C1 2.34203 2.347 0.999026 4.008 0.999026H17.992C18.3865 0.9985 18.7772 1.07568 19.1419 1.22616C19.5065 1.37664 19.838 1.59747 20.1173 1.87605C20.3966 2.15462 20.6184 2.48549 20.7698 2.84975C20.9213 3.21401 20.9995 3.60454 21 3.99903V8.12903" stroke="black" stroke-width="1.5" stroke-linecap="round" stroke-linejoin="round"/>
<path d="M21.0001 15.002C21.0001 11.688 18.3061 9.00195 14.9831 9.00195C11.6601 9.00195 8.96606 11.688 8.96606 15.002C8.96606 18.316 11.6601 21.002 14.9831 21.002C18.3061 21.002 21.0001 18.315 21.0001 15.002Z" stroke="black" stroke-width="1.5" stroke-linecap="round" stroke-linejoin="round"/>
</svg>
