<svg width="20" height="22" viewBox="0 0 20 22" fill="none" xmlns="http://www.w3.org/2000/svg">
<path d="M12 21L15.5 17.5M15.5 17.5L19 14M15.5 17.5L12 14M15.5 17.5L19 21M9 21C7.54141 21.0017 6.08299 20.9684 4.626 20.9C3.79908 20.8601 3.01191 20.5332 2.39995 19.9757C1.78798 19.4181 1.38948 18.6647 1.273 17.845C1.123 16.755 1 15.638 1 14.5C1 13.362 1.123 12.245 1.273 11.155C1.38948 10.3353 1.78798 9.58192 2.39995 9.02434C3.01191 8.46676 3.79908 8.1399 4.626 8.1C6.069 8.034 7.535 8 9.149 8C10.763 8 12.229 8.034 13.672 8.1C14.4721 8.13849 15.2358 8.44568 15.8397 8.97192C16.4436 9.49816 16.8524 10.2127 17 11M4.5 8V5.5C4.5 4.30653 4.97411 3.16193 5.81802 2.31802C6.66193 1.47411 7.80653 1 9 1C10.1935 1 11.3381 1.47411 12.182 2.31802C13.0259 3.16193 13.5 4.30653 13.5 5.5V8" stroke="black" stroke-width="1.5" stroke-linecap="round" stroke-linejoin="round"/>
</svg>
