<svg width="22" height="22" viewBox="0 0 22 22" fill="none" xmlns="http://www.w3.org/2000/svg">
<path d="M3 1.00001V4.13201C3 4.42601 3.367 4.55901 3.555 4.33301C4.4914 3.28333 5.63932 2.44369 6.92332 1.86925C8.20733 1.29481 9.59836 0.998572 11.005 1.00001C16.525 1.00001 21 5.47701 21 11C21 14.958 18.701 18.38 15.367 20M10.735 21C11.2017 21 11.6603 20.9693 12.111 20.908M1.265 7.66701C1.153 8.06434 1.06467 8.46501 1 8.86901M1.035 12.538C1.105 12.938 1.19633 13.3333 1.309 13.724M2.833 16.996C3.07167 17.35 3.32967 17.6897 3.607 18.015M6.43 20.36C6.78333 20.5627 7.151 20.745 7.533 20.907" stroke="black" stroke-width="1.5" stroke-linecap="round" stroke-linejoin="round"/>
</svg>
