<svg width="20" height="24" viewBox="0 0 20 24" fill="none" xmlns="http://www.w3.org/2000/svg">
<path d="M10 0.439941L20 3.93994V11.9999C20 16.1269 17.467 19.0119 15.104 20.8029C13.6786 21.8744 12.1143 22.7474 10.454 23.3979L10.367 23.4309L10.342 23.4399L10.335 23.4419L10.332 23.4429C10.331 23.4429 10.33 23.4429 10 22.4999L9.669 23.4439L9.665 23.4419L9.658 23.4399L9.633 23.4299L9.546 23.3979C9.07436 23.2156 8.61062 23.0134 8.156 22.7919C7.00838 22.2344 5.91674 21.5684 4.896 20.8029C2.534 19.0119 0 16.1269 0 11.9999V3.93994L10 0.439941ZM10 22.4999L9.669 23.4439L10 23.5599L10.331 23.4439L10 22.4999ZM10 21.4279L10.009 21.4239C11.3927 20.852 12.6986 20.1078 13.896 19.2089C16.034 17.5899 18 15.2229 18 11.9999V5.35994L10 2.55994L2 5.35994V11.9999C2 15.2229 3.966 17.5879 6.104 19.2099C7.304 20.1105 8.61305 20.8558 10 21.4279ZM16.072 8.34294L9.001 15.4139L4.758 11.1719L6.173 9.75694L9 12.5859L14.657 6.92894L16.072 8.34294Z" fill="black"/>
</svg>
