<svg width="22" height="22" viewBox="0 0 22 22" fill="none" xmlns="http://www.w3.org/2000/svg">
<path d="M6.00001 8.5C5.76001 6.505 6.91601 6.097 11 6M11 6C15.123 6.1 16.341 6.598 16 8.5M11 6V16M9.00001 16H13" stroke="black" stroke-width="1.5" stroke-linecap="round" stroke-linejoin="round"/>
<path d="M2.891 2.891C1.5 4.282 1.5 6.521 1.5 11C1.5 15.478 1.5 17.718 2.891 19.109C4.282 20.5 6.521 20.5 11 20.5C15.478 20.5 17.718 20.5 19.109 19.109C20.5 17.718 20.5 15.479 20.5 11C20.5 6.522 20.5 4.282 19.109 2.891C17.718 1.5 15.479 1.5 11 1.5C6.522 1.5 4.282 1.5 2.891 2.891Z" stroke="black" stroke-width="1.5" stroke-linecap="round" stroke-linejoin="round"/>
</svg>
