<svg width="22" height="22" viewBox="0 0 22 22" fill="none" xmlns="http://www.w3.org/2000/svg">
<path d="M14.153 3.28409C12.979 2.84809 12.458 1.10409 11.12 1.00409C11.0401 0.999287 10.96 0.999287 10.88 1.00409C9.54303 1.10409 9.02203 2.84809 7.84803 3.28409C6.60503 3.74509 4.90503 2.80009 3.85303 3.85209C2.84003 4.86509 3.73603 6.63009 3.28403 7.84709C2.82303 9.09209 0.891028 9.60709 1.00403 11.1201C1.10503 12.4571 2.84903 12.9791 3.28403 14.1531C3.73603 15.3701 2.84003 17.1351 3.85303 18.1481C4.90503 19.2001 6.60503 18.2551 7.84803 18.7161C9.02103 19.1521 9.54303 20.8961 10.881 20.9961C10.961 21.0021 11.0407 21.0021 11.12 20.9961C12.458 20.8961 12.98 19.1521 14.153 18.7161C15.37 18.2651 17.135 19.1611 18.148 18.1481C19.235 17.0611 18.188 15.2981 18.762 14.0421C19.292 12.8861 21.106 12.3441 20.996 10.8811C20.896 9.54309 19.153 9.02109 18.716 7.84709C18.256 6.60409 19.2 4.90509 18.148 3.85209C17.096 2.79909 15.396 3.74509 14.153 3.28409Z" stroke="black" stroke-width="1.5" stroke-linecap="round" stroke-linejoin="round"/>
<path d="M11.2419 15V11C11.2419 10.529 11.2419 10.293 11.0959 10.146C10.9489 10 10.7139 10 10.2419 10M10.9919 7H11.0019" stroke="black" stroke-width="1.5" stroke-linecap="round" stroke-linejoin="round"/>
</svg>
